<?xml version="1.0" standalone="no"?>
 <!DOCTYPE svg PUBLIC "-//W3C//DTD SVG 1.1//EN" 
 "http://www.w3.org/Graphics/SVG/1.1/DTD/svg11.dtd"> 
<svg xmlns="http://www.w3.org/2000/svg" version="1.1" 
    width="9.19988cm" height="1.91262cm" viewBox="0 0 36220 7530 ">
<title>SVG Picture created as zapnspark-brd.svg date 2018/02/01 10:07:09 </title>
  <desc>Picture generated by PCBNEW </desc>
<g style="fill:#000000; fill-opacity:1;stroke:#000000; stroke-opacity:1;
stroke-linecap:round; stroke-linejoin:round; "
 transform="translate(0 0) scale(1 1)">
</g>
<g style="fill:#000000; fill-opacity:0.0; 
stroke:#000000; stroke-width:-0.000393701; stroke-opacity:1; 
stroke-linecap:round; stroke-linejoin:round;">
</g>
<g style="fill:#000000; fill-opacity:1.0; 
stroke:#000000; stroke-width:0; stroke-opacity:1; 
stroke-linecap:round; stroke-linejoin:round;">
<circle cx="27360.2" cy="4269.69" r="391.732" /> 
</g>
<g style="fill:#000000; fill-opacity:1.0; 
stroke:#000000; stroke-width:39.3701; stroke-opacity:1; 
stroke-linecap:round; stroke-linejoin:round;">
</g>
<g style="fill:#000000; fill-opacity:1.0; 
stroke:#000000; stroke-width:0; stroke-opacity:1; 
stroke-linecap:round; stroke-linejoin:round;">
<circle cx="27110.2" cy="5769.69" r="391.732" /> 
</g>
<g style="fill:#000000; fill-opacity:1.0; 
stroke:#000000; stroke-width:39.3701; stroke-opacity:1; 
stroke-linecap:round; stroke-linejoin:round;">
</g>
<g style="fill:#000000; fill-opacity:1.0; 
stroke:#000000; stroke-width:0; stroke-opacity:1; 
stroke-linecap:round; stroke-linejoin:round;">
<circle cx="28360.2" cy="5269.69" r="391.732" /> 
</g>
<g style="fill:#000000; fill-opacity:1.0; 
stroke:#000000; stroke-width:39.3701; stroke-opacity:1; 
stroke-linecap:round; stroke-linejoin:round;">
</g>
<g style="fill:#000000; fill-opacity:1.0; 
stroke:#000000; stroke-width:0; stroke-opacity:1; 
stroke-linecap:round; stroke-linejoin:round;">
<circle cx="28360.2" cy="2269.69" r="391.732" /> 
</g>
<g style="fill:#000000; fill-opacity:1.0; 
stroke:#000000; stroke-width:39.3701; stroke-opacity:1; 
stroke-linecap:round; stroke-linejoin:round;">
</g>
<g style="fill:#000000; fill-opacity:1.0; 
stroke:#000000; stroke-width:0; stroke-opacity:1; 
stroke-linecap:round; stroke-linejoin:round;">
<circle cx="27110.2" cy="1769.69" r="391.732" /> 
</g>
<g style="fill:#000000; fill-opacity:1.0; 
stroke:#000000; stroke-width:39.3701; stroke-opacity:1; 
stroke-linecap:round; stroke-linejoin:round;">
</g>
<g style="fill:#000000; fill-opacity:1.0; 
stroke:#000000; stroke-width:0; stroke-opacity:1; 
stroke-linecap:round; stroke-linejoin:round;">
<circle cx="27360.2" cy="3269.69" r="391.732" /> 
</g>
<g style="fill:#000000; fill-opacity:1.0; 
stroke:#000000; stroke-width:39.3701; stroke-opacity:1; 
stroke-linecap:round; stroke-linejoin:round;">
</g>
<g style="fill:#000000; fill-opacity:1.0; 
stroke:#000000; stroke-width:0; stroke-opacity:1; 
stroke-linecap:round; stroke-linejoin:round;">
<circle cx="8610.24" cy="3519.69" r="391.732" /> 
</g>
<g style="fill:#000000; fill-opacity:1.0; 
stroke:#000000; stroke-width:39.3701; stroke-opacity:1; 
stroke-linecap:round; stroke-linejoin:round;">
</g>
<g style="fill:#000000; fill-opacity:1.0; 
stroke:#000000; stroke-width:0; stroke-opacity:1; 
stroke-linecap:round; stroke-linejoin:round;">
<circle cx="6641.73" cy="3519.69" r="391.732" /> 
</g>
<g style="fill:#000000; fill-opacity:1.0; 
stroke:#000000; stroke-width:39.3701; stroke-opacity:1; 
stroke-linecap:round; stroke-linejoin:round;">
</g>
<g style="fill:#000000; fill-opacity:1.0; 
stroke:#000000; stroke-width:0; stroke-opacity:1; 
stroke-linecap:round; stroke-linejoin:round;">
<circle cx="19610.2" cy="6019.69" r="393.5" /> 
</g>
<g style="fill:#000000; fill-opacity:1.0; 
stroke:#000000; stroke-width:39.3701; stroke-opacity:1; 
stroke-linecap:round; stroke-linejoin:round;">
</g>
<g style="fill:#000000; fill-opacity:1.0; 
stroke:#000000; stroke-width:0; stroke-opacity:1; 
stroke-linecap:round; stroke-linejoin:round;">
<circle cx="23610.2" cy="6019.69" r="393.5" /> 
</g>
<g style="fill:#000000; fill-opacity:1.0; 
stroke:#000000; stroke-width:39.3701; stroke-opacity:1; 
stroke-linecap:round; stroke-linejoin:round;">
</g>
<g style="fill:#000000; fill-opacity:1.0; 
stroke:#000000; stroke-width:0; stroke-opacity:1; 
stroke-linecap:round; stroke-linejoin:round;">
<circle cx="23610.2" cy="1519.69" r="393.5" /> 
</g>
<g style="fill:#000000; fill-opacity:1.0; 
stroke:#000000; stroke-width:39.3701; stroke-opacity:1; 
stroke-linecap:round; stroke-linejoin:round;">
</g>
<g style="fill:#000000; fill-opacity:1.0; 
stroke:#000000; stroke-width:0; stroke-opacity:1; 
stroke-linecap:round; stroke-linejoin:round;">
<circle cx="19610.2" cy="1519.69" r="393.5" /> 
</g>
<g style="fill:#000000; fill-opacity:1.0; 
stroke:#000000; stroke-width:39.3701; stroke-opacity:1; 
stroke-linecap:round; stroke-linejoin:round;">
</g>
<g style="fill:#000000; fill-opacity:1.0; 
stroke:#000000; stroke-width:0; stroke-opacity:1; 
stroke-linecap:round; stroke-linejoin:round;">
<circle cx="18610.2" cy="6019.69" r="393.5" /> 
</g>
<g style="fill:#000000; fill-opacity:1.0; 
stroke:#000000; stroke-width:39.3701; stroke-opacity:1; 
stroke-linecap:round; stroke-linejoin:round;">
</g>
<g style="fill:#000000; fill-opacity:1.0; 
stroke:#000000; stroke-width:0; stroke-opacity:1; 
stroke-linecap:round; stroke-linejoin:round;">
<circle cx="14610.2" cy="6019.69" r="393.5" /> 
</g>
<g style="fill:#000000; fill-opacity:1.0; 
stroke:#000000; stroke-width:39.3701; stroke-opacity:1; 
stroke-linecap:round; stroke-linejoin:round;">
</g>
<g style="fill:#000000; fill-opacity:1.0; 
stroke:#000000; stroke-width:0; stroke-opacity:1; 
stroke-linecap:round; stroke-linejoin:round;">
<circle cx="11610.2" cy="5769.69" r="334.5" /> 
</g>
<g style="fill:#000000; fill-opacity:1.0; 
stroke:#000000; stroke-width:39.3701; stroke-opacity:1; 
stroke-linecap:round; stroke-linejoin:round;">
</g>
<g style="fill:#000000; fill-opacity:1.0; 
stroke:#000000; stroke-width:0; stroke-opacity:1; 
stroke-linecap:round; stroke-linejoin:round;">
<polyline style="fill-rule:evenodd;"
points="7944,5435
7944,6104
7275,6104
7275,5435
7944,5435
" /> 
<circle cx="12078.7" cy="3519.69" r="391.732" /> 
</g>
<g style="fill:#000000; fill-opacity:1.0; 
stroke:#000000; stroke-width:39.3701; stroke-opacity:1; 
stroke-linecap:round; stroke-linejoin:round;">
</g>
<g style="fill:#000000; fill-opacity:1.0; 
stroke:#000000; stroke-width:0; stroke-opacity:1; 
stroke-linecap:round; stroke-linejoin:round;">
<circle cx="10110.2" cy="3519.69" r="391.732" /> 
</g>
<g style="fill:#000000; fill-opacity:1.0; 
stroke:#000000; stroke-width:39.3701; stroke-opacity:1; 
stroke-linecap:round; stroke-linejoin:round;">
</g>
<g style="fill:#000000; fill-opacity:1.0; 
stroke:#000000; stroke-width:0; stroke-opacity:1; 
stroke-linecap:round; stroke-linejoin:round;">
<circle cx="13110.2" cy="4769.69" r="393.5" /> 
</g>
<g style="fill:#000000; fill-opacity:1.0; 
stroke:#000000; stroke-width:39.3701; stroke-opacity:1; 
stroke-linecap:round; stroke-linejoin:round;">
</g>
<g style="fill:#000000; fill-opacity:1.0; 
stroke:#000000; stroke-width:0; stroke-opacity:1; 
stroke-linecap:round; stroke-linejoin:round;">
<circle cx="9110.24" cy="4769.69" r="393.5" /> 
</g>
<g style="fill:#000000; fill-opacity:1.0; 
stroke:#000000; stroke-width:39.3701; stroke-opacity:1; 
stroke-linecap:round; stroke-linejoin:round;">
</g>
<g style="fill:#000000; fill-opacity:1.0; 
stroke:#000000; stroke-width:0; stroke-opacity:1; 
stroke-linecap:round; stroke-linejoin:round;">
<circle cx="5610.24" cy="5769.69" r="393.5" /> 
</g>
<g style="fill:#000000; fill-opacity:1.0; 
stroke:#000000; stroke-width:39.3701; stroke-opacity:1; 
stroke-linecap:round; stroke-linejoin:round;">
</g>
<g style="fill:#000000; fill-opacity:1.0; 
stroke:#000000; stroke-width:0; stroke-opacity:1; 
stroke-linecap:round; stroke-linejoin:round;">
<circle cx="5610.24" cy="1769.69" r="393.5" /> 
</g>
<g style="fill:#000000; fill-opacity:1.0; 
stroke:#000000; stroke-width:39.3701; stroke-opacity:1; 
stroke-linecap:round; stroke-linejoin:round;">
</g>
<g style="fill:#000000; fill-opacity:1.0; 
stroke:#000000; stroke-width:0; stroke-opacity:1; 
stroke-linecap:round; stroke-linejoin:round;">
<circle cx="11110.2" cy="1769.69" r="393.5" /> 
</g>
<g style="fill:#000000; fill-opacity:1.0; 
stroke:#000000; stroke-width:39.3701; stroke-opacity:1; 
stroke-linecap:round; stroke-linejoin:round;">
</g>
<g style="fill:#000000; fill-opacity:1.0; 
stroke:#000000; stroke-width:0; stroke-opacity:1; 
stroke-linecap:round; stroke-linejoin:round;">
<circle cx="7110.24" cy="1769.69" r="393.5" /> 
</g>
<g style="fill:#000000; fill-opacity:1.0; 
stroke:#000000; stroke-width:39.3701; stroke-opacity:1; 
stroke-linecap:round; stroke-linejoin:round;">
</g>
<g style="fill:#000000; fill-opacity:1.0; 
stroke:#000000; stroke-width:0; stroke-opacity:1; 
stroke-linecap:round; stroke-linejoin:round;">
<circle cx="29110.2" cy="2269.69" r="334.5" /> 
</g>
<g style="fill:#000000; fill-opacity:1.0; 
stroke:#000000; stroke-width:39.3701; stroke-opacity:1; 
stroke-linecap:round; stroke-linejoin:round;">
</g>
<g style="fill:#000000; fill-opacity:1.0; 
stroke:#000000; stroke-width:0; stroke-opacity:1; 
stroke-linecap:round; stroke-linejoin:round;">
<polyline style="fill-rule:evenodd;"
points="32775,2604
32775,1935
33444,1935
33444,2604
32775,2604
" /> 
<circle cx="29110.2" cy="1269.69" r="334.5" /> 
</g>
<g style="fill:#000000; fill-opacity:1.0; 
stroke:#000000; stroke-width:39.3701; stroke-opacity:1; 
stroke-linecap:round; stroke-linejoin:round;">
</g>
<g style="fill:#000000; fill-opacity:1.0; 
stroke:#000000; stroke-width:0; stroke-opacity:1; 
stroke-linecap:round; stroke-linejoin:round;">
<polyline style="fill-rule:evenodd;"
points="32775,1604
32775,935
33444,935
33444,1604
32775,1604
" /> 
</g>
<g style="fill:#000000; fill-opacity:1.0; 
stroke:#000000; stroke-width:680; stroke-opacity:1; 
stroke-linecap:round; stroke-linejoin:round;">
</g>
<g style="fill:#000000; fill-opacity:0.0; 
stroke:#000000; stroke-width:680; stroke-opacity:1; 
stroke-linecap:round; stroke-linejoin:round;">
<path d="M30815 3519
L32904 3519
" />
<path d="M30815 4519
L32904 4519
" />
</g>
<g style="fill:#000000; fill-opacity:0.0; 
stroke:#000000; stroke-width:0; stroke-opacity:1; 
stroke-linecap:round; stroke-linejoin:round;">
</g>
<g style="fill:#000000; fill-opacity:1.0; 
stroke:#000000; stroke-width:0; stroke-opacity:1; 
stroke-linecap:round; stroke-linejoin:round;">
<polyline style="fill-rule:evenodd;"
points="30475,5859
30475,5179
33244,5179
33244,5859
30475,5859
" /> 
</g>
<g style="fill:#000000; fill-opacity:1.0; 
stroke:#000000; stroke-width:680; stroke-opacity:1; 
stroke-linecap:round; stroke-linejoin:round;">
</g>
<g style="fill:#000000; fill-opacity:0.0; 
stroke:#000000; stroke-width:680; stroke-opacity:1; 
stroke-linecap:round; stroke-linejoin:round;">
<path d="M5010 4769
L3709 4769
" />
</g>
<g style="fill:#000000; fill-opacity:0.0; 
stroke:#000000; stroke-width:0; stroke-opacity:1; 
stroke-linecap:round; stroke-linejoin:round;">
</g>
<g style="fill:#000000; fill-opacity:1.0; 
stroke:#000000; stroke-width:0; stroke-opacity:1; 
stroke-linecap:round; stroke-linejoin:round;">
<polyline style="fill-rule:evenodd;"
points="5350,3429
5350,4109
3369,4109
3369,3429
5350,3429
" /> 
</g>
<g style="fill:#000000; fill-opacity:1.0; 
stroke:#000000; stroke-width:680; stroke-opacity:1; 
stroke-linecap:round; stroke-linejoin:round;">
</g>
<g style="fill:#000000; fill-opacity:0.0; 
stroke:#000000; stroke-width:680; stroke-opacity:1; 
stroke-linecap:round; stroke-linejoin:round;">
<path d="M5010 2769
L3709 2769
" />
</g>
<g style="fill:#000000; fill-opacity:1.0; 
stroke:#000000; stroke-width:0; stroke-opacity:1; 
stroke-linecap:round; stroke-linejoin:round;">
<circle cx="26110.2" cy="2801.18" r="391.732" /> 
</g>
<g style="fill:#000000; fill-opacity:1.0; 
stroke:#000000; stroke-width:39.3701; stroke-opacity:1; 
stroke-linecap:round; stroke-linejoin:round;">
</g>
<g style="fill:#000000; fill-opacity:1.0; 
stroke:#000000; stroke-width:0; stroke-opacity:1; 
stroke-linecap:round; stroke-linejoin:round;">
<circle cx="26110.2" cy="4769.69" r="391.732" /> 
</g>
<g style="fill:#000000; fill-opacity:1.0; 
stroke:#000000; stroke-width:39.3701; stroke-opacity:1; 
stroke-linecap:round; stroke-linejoin:round;">
</g>
<g style="fill:#000000; fill-opacity:1.0; 
stroke:#000000; stroke-width:0; stroke-opacity:1; 
stroke-linecap:round; stroke-linejoin:round;">
<circle cx="18610.2" cy="2773.62" r="391.732" /> 
</g>
<g style="fill:#000000; fill-opacity:1.0; 
stroke:#000000; stroke-width:39.3701; stroke-opacity:1; 
stroke-linecap:round; stroke-linejoin:round;">
</g>
<g style="fill:#000000; fill-opacity:1.0; 
stroke:#000000; stroke-width:0; stroke-opacity:1; 
stroke-linecap:round; stroke-linejoin:round;">
<circle cx="18610.2" cy="4269.69" r="391.732" /> 
</g>
<g style="fill:#000000; fill-opacity:1.0; 
stroke:#000000; stroke-width:39.3701; stroke-opacity:1; 
stroke-linecap:round; stroke-linejoin:round;">
</g>
<g style="fill:#000000; fill-opacity:1.0; 
stroke:#000000; stroke-width:59.0551; stroke-opacity:1; 
stroke-linecap:round; stroke-linejoin:round;">
</g>
<g style="fill:#000000; fill-opacity:0.0; 
stroke:#000000; stroke-width:59.0551; stroke-opacity:1; 
stroke-linecap:round; stroke-linejoin:round;">
<path d="M28860 5269
L27360 3769
" />
<path d="M27360 3769
L26860 3769
" />
<path d="M26860 3769
L26360 4269
" />
<path d="M26360 4269
L26360 5269
" />
<path d="M26360 5269
L27360 6269
" />
<path d="M27360 6269
L28360 6269
" />
<path d="M28360 6269
L28860 5769
" />
<path d="M28860 5769
L28860 5269
" />
<path d="M27360 3769
L28860 2269
" />
<path d="M28860 2269
L28860 1769
" />
<path d="M28860 1769
L28360 1269
" />
<path d="M28360 1269
L27360 1269
" />
<path d="M27360 1269
L26360 2269
" />
<path d="M26360 2269
L26360 3269
" />
<path d="M26360 3269
L26860 3769
" />
<path d="M26860 3769
L27360 3769
" />
<path d="M9003 4405
L6248 4405
" />
<path d="M6248 4405
L6248 2633
" />
<path d="M6248 2633
L9003 2633
" />
<path d="M9003 2633
L9003 4405
" />
<path d="M20610 5519
L22610 5519
" />
<path d="M22610 5519
L22610 6519
" />
<path d="M22610 6519
L20610 6519
" />
<path d="M20610 6519
L20610 5519
" />
<path d="M20610 6019
L20110 6019
" />
<path d="M22610 6019
L23110 6019
" />
<path d="M22610 2019
L20610 2019
" />
<path d="M20610 2019
L20610 1019
" />
<path d="M20610 1019
L22610 1019
" />
<path d="M22610 1019
L22610 2019
" />
<path d="M22610 1519
L23110 1519
" />
<path d="M20610 1519
L20110 1519
" />
<path d="M17610 6519
L15610 6519
" />
<path d="M15610 6519
L15610 5519
" />
<path d="M15610 5519
L17610 5519
" />
<path d="M17610 5519
L17610 6519
" />
<path d="M17610 6019
L18110 6019
" />
<path d="M15610 6019
L15110 6019
" />
<path d="M10510 5769
L11060 5769
" />
<path d="M8760 5769
L8160 5769
" />
<path d="M8910 6069
L8910 5469
" />
<path d="M8810 6069
L8810 5469
" />
<path d="M8710 5769
L8710 5469
" />
<path d="M8710 5469
L10510 5469
" />
<path d="M10510 5469
L10510 6069
" />
<path d="M10510 6069
L8710 6069
" />
<path d="M8710 6069
L8710 5769
" />
<path d="M12472 4405
L9716 4405
" />
<path d="M9716 4405
L9716 2633
" />
<path d="M9716 2633
L12472 2633
" />
<path d="M12472 2633
L12472 4405
" />
<path d="M12110 5269
L10110 5269
" />
<path d="M10110 5269
L10110 4269
" />
<path d="M10110 4269
L12110 4269
" />
<path d="M12110 4269
L12110 5269
" />
<path d="M12110 4769
L12610 4769
" />
<path d="M10110 4769
L9610 4769
" />
<path d="M5110 4769
L5110 2769
" />
<path d="M5110 2769
L6110 2769
" />
<path d="M6110 2769
L6110 4769
" />
<path d="M6110 4769
L5110 4769
" />
<path d="M5610 4769
L5610 5269
" />
<path d="M5610 2769
L5610 2269
" />
<path d="M10110 2269
L8110 2269
" />
<path d="M8110 2269
L8110 1269
" />
<path d="M8110 1269
L10110 1269
" />
<path d="M10110 1269
L10110 2269
" />
<path d="M10110 1769
L10610 1769
" />
<path d="M8110 1769
L7610 1769
" />
<path d="M30210 2269
L29660 2269
" />
<path d="M31960 2269
L32560 2269
" />
<path d="M31810 1969
L31810 2569
" />
<path d="M31910 1969
L31910 2569
" />
<path d="M32010 2269
L32010 2569
" />
<path d="M32010 2569
L30210 2569
" />
<path d="M30210 2569
L30210 1969
" />
<path d="M30210 1969
L32010 1969
" />
<path d="M32010 1969
L32010 2269
" />
<path d="M30210 1269
L29660 1269
" />
<path d="M31960 1269
L32560 1269
" />
<path d="M31810 969
L31810 1569
" />
<path d="M31910 969
L31910 1569
" />
<path d="M32010 1269
L32010 1569
" />
<path d="M32010 1569
L30210 1569
" />
<path d="M30210 1569
L30210 969
" />
<path d="M30210 969
L32010 969
" />
<path d="M32010 969
L32010 1269
" />
<path d="M31348 2909
L31348 3519
" />
<path d="M31860 2909
L31348 2909
" />
<path d="M33510 3469
L35810 3469
" />
<path d="M35810 3469
L35810 3569
" />
<path d="M35810 3569
L33510 3569
" />
<path d="M33510 3569
L33510 3519
" />
<path d="M33510 3519
L35810 3519
" />
<path d="M32460 3419
L32310 3419
" />
<path d="M32460 3619
L32310 3619
" />
<path d="M32460 4419
L32310 4419
" />
<path d="M32460 4619
L32310 4619
" />
<path d="M32460 5419
L32310 5419
" />
<path d="M32460 5619
L32310 5619
" />
<path d="M33460 4019
L33460 3019
" />
<path d="M35860 3619
L33460 3619
" />
<path d="M35860 3419
L35860 3619
" />
<path d="M33460 3419
L35860 3419
" />
<path d="M32460 4019
L33460 4019
" />
<path d="M32460 3019
L32460 4019
" />
<path d="M32460 3019
L33460 3019
" />
<path d="M32460 5019
L33460 5019
" />
<path d="M32460 5019
L32460 6019
" />
<path d="M33460 5419
L35860 5419
" />
<path d="M35860 5419
L35860 5619
" />
<path d="M35860 5619
L33460 5619
" />
<path d="M33460 6019
L33460 5019
" />
<path d="M33460 5019
L33460 4019
" />
<path d="M35860 4619
L33460 4619
" />
<path d="M35860 4419
L35860 4619
" />
<path d="M33460 4419
L35860 4419
" />
<path d="M32460 5019
L33460 5019
" />
<path d="M32460 4019
L32460 5019
" />
<path d="M32460 4019
L33460 4019
" />
<path d="M32460 6019
L33460 6019
" />
<path d="M4872 5379
L4872 4769
" />
<path d="M4360 5379
L4872 5379
" />
<path d="M2710 4819
L410 4819
" />
<path d="M410 4819
L410 4719
" />
<path d="M410 4719
L2710 4719
" />
<path d="M2710 4719
L2710 4769
" />
<path d="M2710 4769
L410 4769
" />
<path d="M3760 4869
L3910 4869
" />
<path d="M3760 4669
L3910 4669
" />
<path d="M3760 3869
L3910 3869
" />
<path d="M3760 3669
L3910 3669
" />
<path d="M3760 2869
L3910 2869
" />
<path d="M3760 2669
L3910 2669
" />
<path d="M2760 4269
L2760 5269
" />
<path d="M360 4669
L2760 4669
" />
<path d="M360 4869
L360 4669
" />
<path d="M2760 4869
L360 4869
" />
<path d="M3760 4269
L2760 4269
" />
<path d="M3760 5269
L3760 4269
" />
<path d="M3760 5269
L2760 5269
" />
<path d="M3760 3269
L2760 3269
" />
<path d="M3760 3269
L3760 2269
" />
<path d="M2760 2869
L360 2869
" />
<path d="M360 2869
L360 2669
" />
<path d="M360 2669
L2760 2669
" />
<path d="M2760 2269
L2760 3269
" />
<path d="M2760 3269
L2760 4269
" />
<path d="M360 3669
L2760 3669
" />
<path d="M360 3869
L360 3669
" />
<path d="M2760 3869
L360 3869
" />
<path d="M3760 3269
L2760 3269
" />
<path d="M3760 4269
L3760 3269
" />
<path d="M3760 4269
L2760 4269
" />
<path d="M3760 2269
L2760 2269
" />
<path d="M28078 3814
L24142 3814
" />
<path d="M28076 3870
L24143 3870
" />
<path d="M28073 3925
L24146 3925
" />
<path d="M28068 3980
L24151 3980
" />
<path d="M28062 4035
L24157 4035
" />
<path d="M28055 4090
L24165 4090
" />
<path d="M28045 4145
L24174 4145
" />
<path d="M28034 4200
L24186 4200
" />
<path d="M28021 4255
L24198 4255
" />
<path d="M28007 4311
L24213 4311
" />
<path d="M27990 4366
L24229 4366
" />
<path d="M27973 4421
L26293 4421
" />
<path d="M25926 4421
L24247 4421
" />
<path d="M27953 4476
L26372 4476
" />
<path d="M25847 4476
L24266 4476
" />
<path d="M27931 4531
L26423 4531
" />
<path d="M25796 4531
L24288 4531
" />
<path d="M27908 4586
L26458 4586
" />
<path d="M25761 4586
L24312 4586
" />
<path d="M27882 4641
L26482 4641
" />
<path d="M25737 4641
L24337 4641
" />
<path d="M27855 4696
L26497 4696
" />
<path d="M25723 4696
L24365 4696
" />
<path d="M27825 4751
L26503 4751
" />
<path d="M25716 4751
L24395 4751
" />
<path d="M27792 4807
L26501 4807
" />
<path d="M25718 4807
L24427 4807
" />
<path d="M27758 4862
L26492 4862
" />
<path d="M25727 4862
L24462 4862
" />
<path d="M27720 4917
L26475 4917
" />
<path d="M25745 4917
L24499 4917
" />
<path d="M27680 4972
L26447 4972
" />
<path d="M25772 4972
L24539 4972
" />
<path d="M27637 5027
L26407 5027
" />
<path d="M25812 5027
L24583 5027
" />
<path d="M27590 5082
L26349 5082
" />
<path d="M25871 5082
L24629 5082
" />
<path d="M27540 5137
L26250 5137
" />
<path d="M25970 5137
L24679 5137
" />
<path d="M27486 5192
L24733 5192
" />
<path d="M27427 5248
L24792 5248
" />
<path d="M27363 5303
L24856 5303
" />
<path d="M27294 5358
L24926 5358
" />
<path d="M27216 5413
L25003 5413
" />
<path d="M27131 5468
L25089 5468
" />
<path d="M27034 5523
L25186 5523
" />
<path d="M26922 5578
L25298 5578
" />
<path d="M26787 5633
L25433 5633
" />
<path d="M26611 5688
L25608 5688
" />
<path d="M26306 5744
L25913 5744
" />
<circle cx="26110.2" cy="4769.69" r="393.701" /> 
<circle cx="26110.2" cy="3785.43" r="1983.27" /> 
<path d="M20184 3551
L17035 3551
" />
<path d="M20182 3606
L17037 3606
" />
<path d="M20178 3661
L17041 3661
" />
<path d="M20172 3716
L17047 3716
" />
<path d="M20164 3771
L17055 3771
" />
<path d="M20155 3826
L17065 3826
" />
<path d="M20143 3881
L18678 3881
" />
<path d="M18542 3881
L17077 3881
" />
<path d="M20129 3937
L18820 3937
" />
<path d="M18399 3937
L17091 3937
" />
<path d="M20112 3992
L18889 3992
" />
<path d="M18331 3992
L17107 3992
" />
<path d="M20094 4047
L18935 4047
" />
<path d="M18285 4047
L17125 4047
" />
<path d="M20074 4102
L18966 4102
" />
<path d="M18253 4102
L17146 4102
" />
<path d="M20050 4157
L18987 4157
" />
<path d="M18232 4157
L17169 4157
" />
<path d="M20025 4212
L18999 4212
" />
<path d="M18220 4212
L17195 4212
" />
<path d="M19997 4267
L19003 4267
" />
<path d="M18216 4267
L17223 4267
" />
<path d="M19966 4322
L19000 4322
" />
<path d="M18220 4322
L17254 4322
" />
<path d="M19931 4377
L18988 4377
" />
<path d="M18231 4377
L17288 4377
" />
<path d="M19894 4433
L18968 4433
" />
<path d="M18251 4433
L17325 4433
" />
<path d="M19853 4488
L18937 4488
" />
<path d="M18282 4488
L17366 4488
" />
<path d="M19808 4543
L18893 4543
" />
<path d="M18327 4543
L17411 4543
" />
<path d="M19759 4598
L18826 4598
" />
<path d="M18393 4598
L17461 4598
" />
<path d="M19705 4653
L18697 4653
" />
<path d="M18522 4653
L17515 4653
" />
<path d="M19645 4708
L17575 4708
" />
<path d="M19578 4763
L17642 4763
" />
<path d="M19503 4818
L17717 4818
" />
<path d="M19417 4874
L17803 4874
" />
<path d="M19316 4929
L17903 4929
" />
<path d="M19194 4984
L18026 4984
" />
<path d="M19030 5039
L18190 5039
" />
<path d="M18688 5094
L18531 5094
" />
<circle cx="18610.2" cy="4269.69" r="393.701" /> 
<circle cx="18610.2" cy="3521.65" r="1589.57" /> 
<path d="M26822 6985
L26785 6966
L26747 6929
L26691 6872
L26654 6854
L26616 6854
" />
<path d="M26635 6947
L26597 6929
L26560 6891
L26541 6816
L26541 6685
L26560 6610
L26597 6572
L26635 6554
L26710 6554
L26747 6572
L26785 6610
L26803 6685
L26803 6816
L26785 6891
L26747 6929
L26710 6947
L26635 6947
" />
<path d="M26953 6591
L26972 6572
L27010 6554
L27103 6554
L27141 6572
L27160 6591
L27178 6629
L27178 6666
L27160 6722
L26935 6947
L27178 6947
" />
<path d="M26822 985
L26785 966
L26747 929
L26691 872
L26654 854
L26616 854
" />
<path d="M26635 947
L26597 929
L26560 891
L26541 816
L26541 685
L26560 610
L26597 572
L26635 554
L26710 554
L26747 572
L26785 610
L26803 685
L26803 816
L26785 891
L26747 929
L26710 947
L26635 947
" />
<path d="M27178 947
L26953 947
" />
<path d="M27066 947
L27066 554
L27028 610
L26991 647
L26953 666
" />
<path d="M7560 3160
L7541 3179
L7485 3197
L7447 3197
L7391 3179
L7354 3141
L7335 3104
L7316 3029
L7316 2972
L7335 2897
L7354 2860
L7391 2822
L7447 2804
L7485 2804
L7541 2822
L7560 2841
" />
<path d="M7710 2841
L7729 2822
L7766 2804
L7860 2804
L7897 2822
L7916 2841
L7935 2879
L7935 2916
L7916 2972
L7691 3197
L7935 3197
" />
<path d="M21544 7197
L21413 7010
" />
<path d="M21319 7197
L21319 6804
L21469 6804
L21507 6822
L21525 6841
L21544 6879
L21544 6935
L21525 6972
L21507 6991
L21469 7010
L21319 7010
" />
<path d="M21882 6804
L21807 6804
L21769 6822
L21750 6841
L21713 6897
L21694 6972
L21694 7122
L21713 7160
L21732 7179
L21769 7197
L21844 7197
L21882 7179
L21900 7160
L21919 7122
L21919 7029
L21900 6991
L21882 6972
L21844 6954
L21769 6954
L21732 6972
L21713 6991
L21694 7029
" />
<path d="M21544 2697
L21413 2510
" />
<path d="M21319 2697
L21319 2304
L21469 2304
L21507 2322
L21525 2341
L21544 2379
L21544 2435
L21525 2472
L21507 2491
L21469 2510
L21319 2510
" />
<path d="M21675 2304
L21919 2304
L21788 2454
L21844 2454
L21882 2472
L21900 2491
L21919 2529
L21919 2622
L21900 2660
L21882 2679
L21844 2697
L21732 2697
L21694 2679
L21675 2660
" />
<path d="M16544 7197
L16413 7010
" />
<path d="M16319 7197
L16319 6804
L16469 6804
L16507 6822
L16525 6841
L16544 6879
L16544 6935
L16525 6972
L16507 6991
L16469 7010
L16319 7010
" />
<path d="M16882 6935
L16882 7197
" />
<path d="M16788 6785
L16694 7066
L16938 7066
" />
<path d="M9319 6697
L9319 6304
L9413 6304
L9469 6322
L9507 6360
L9525 6397
L9544 6472
L9544 6529
L9525 6604
L9507 6641
L9469 6679
L9413 6697
L9319 6697
" />
<path d="M9694 6341
L9713 6322
L9750 6304
L9844 6304
L9882 6322
L9900 6341
L9919 6379
L9919 6416
L9900 6472
L9675 6697
L9919 6697
" />
<path d="M11028 3160
L11010 3179
L10953 3197
L10916 3197
L10860 3179
L10822 3141
L10803 3104
L10785 3029
L10785 2972
L10803 2897
L10822 2860
L10860 2822
L10916 2804
L10953 2804
L11010 2822
L11028 2841
" />
<path d="M11366 2935
L11366 3197
" />
<path d="M11272 2785
L11178 3066
L11422 3066
" />
<path d="M13044 5947
L12913 5760
" />
<path d="M12819 5947
L12819 5554
L12969 5554
L13007 5572
L13025 5591
L13044 5629
L13044 5685
L13025 5722
L13007 5741
L12969 5760
L12819 5760
" />
<path d="M13400 5554
L13213 5554
L13194 5741
L13213 5722
L13250 5704
L13344 5704
L13382 5722
L13400 5741
L13419 5779
L13419 5872
L13400 5910
L13382 5929
L13344 5947
L13250 5947
L13213 5929
L13194 5910
" />
<path d="M5544 1197
L5413 1010
" />
<path d="M5319 1197
L5319 804
L5469 804
L5507 822
L5525 841
L5544 879
L5544 935
L5525 972
L5507 991
L5469 1010
L5319 1010
" />
<path d="M5919 1197
L5694 1197
" />
<path d="M5807 1197
L5807 804
L5769 860
L5732 897
L5694 916
" />
<path d="M9044 947
L8913 760
" />
<path d="M8819 947
L8819 554
L8969 554
L9007 572
L9025 591
L9044 629
L9044 685
L9025 722
L9007 741
L8969 760
L8819 760
" />
<path d="M9194 591
L9213 572
L9250 554
L9344 554
L9382 572
L9400 591
L9419 629
L9419 666
L9400 722
L9175 947
L9419 947
" />
<path d="M30819 3197
L30819 2804
L30913 2804
L30969 2822
L31007 2860
L31025 2897
L31044 2972
L31044 3029
L31025 3104
L31007 3141
L30969 3179
L30913 3197
L30819 3197
" />
<path d="M31175 2804
L31419 2804
L31288 2954
L31344 2954
L31382 2972
L31400 2991
L31419 3029
L31419 3122
L31400 3160
L31382 3179
L31344 3197
L31232 3197
L31194 3179
L31175 3160
" />
<path d="M30819 697
L30819 304
L30913 304
L30969 322
L31007 360
L31025 397
L31044 472
L31044 529
L31025 604
L31007 641
L30969 679
L30913 697
L30819 697
" />
<path d="M31419 697
L31194 697
" />
<path d="M31307 697
L31307 304
L31269 360
L31232 397
L31194 416
" />
<path d="M31069 6697
L31069 6304
L31219 6304
L31257 6322
L31275 6341
L31294 6379
L31294 6435
L31275 6472
L31257 6491
L31219 6510
L31069 6510
" />
<path d="M31444 6341
L31463 6322
L31500 6304
L31594 6304
L31632 6322
L31650 6341
L31669 6379
L31669 6416
L31650 6472
L31425 6697
L31669 6697
" />
<path d="M319 6197
L319 5804
L469 5804
L507 5822
L525 5841
L544 5879
L544 5935
L525 5972
L507 5991
L469 6010
L319 6010
" />
<path d="M919 6197
L694 6197
" />
<path d="M807 6197
L807 5804
L769 5860
L732 5897
L694 5916
" />
<path d="M23000 3835
L23019 3854
L23038 3910
L23038 3947
L23019 4004
L22982 4041
L22944 4060
L22869 4079
L22813 4079
L22738 4060
L22700 4041
L22663 4004
L22644 3947
L22644 3910
L22663 3854
L22682 3835
" />
<path d="M22644 3704
L22644 3460
L22794 3591
L22794 3535
L22813 3497
L22832 3479
L22869 3460
L22963 3460
L23000 3479
L23019 3497
L23038 3535
L23038 3647
L23019 3685
L23000 3704
" />
<path d="M15750 3585
L15769 3604
L15788 3660
L15788 3697
L15769 3754
L15732 3791
L15694 3810
L15619 3829
L15563 3829
L15488 3810
L15450 3791
L15413 3754
L15394 3697
L15394 3660
L15413 3604
L15432 3585
" />
<path d="M15788 3210
L15788 3435
" />
<path d="M15788 3322
L15394 3322
L15450 3360
L15488 3397
L15507 3435
" />
</g>
<g style="fill:#000000; fill-opacity:0.0; 
stroke:#000000; stroke-width:19.685; stroke-opacity:1; 
stroke-linecap:round; stroke-linejoin:round;">
<path d="M9102 4503
L6149 4503
" />
<path d="M6149 4503
L6149 2535
" />
<path d="M6149 2535
L9102 2535
" />
<path d="M9102 2535
L9102 4503
" />
<path d="M12570 4503
L9618 4503
" />
<path d="M9618 4503
L9618 2535
" />
<path d="M9618 2535
L12570 2535
" />
<path d="M12570 2535
L12570 4503
" />
<path d="M31269 2830
L31269 6216
" />
<path d="M36053 2830
L36053 6216
" />
<path d="M31269 2830
L36053 2830
" />
<path d="M31269 6216
L36053 6216
" />
<path d="M4950 5458
L4950 2072
" />
<path d="M167 5458
L167 2072
" />
<path d="M4950 5458
L167 5458
" />
<path d="M4950 2072
L167 2072
" />
<circle cx="26110.2" cy="3785.43" r="2086.61" /> 
<circle cx="18610.2" cy="3521.65" r="1692.91" /> 
</g>
<g style="fill:#000000; fill-opacity:0.0; 
stroke:#000000; stroke-width:59.0551; stroke-opacity:1; 
stroke-linecap:round; stroke-linejoin:round;">
<path d="M27879 6741
L27935 6760
L27954 6779
L27972 6816
L27972 6872
L27954 6910
L27935 6929
L27897 6947
L27747 6947
L27747 6554
L27879 6554
L27916 6572
L27935 6591
L27954 6629
L27954 6666
L27935 6704
L27916 6722
L27879 6741
L27747 6741
" />
<path d="M28366 6910
L28347 6929
L28291 6947
L28254 6947
L28197 6929
L28160 6891
L28141 6854
L28122 6779
L28122 6722
L28141 6647
L28160 6610
L28197 6572
L28254 6554
L28291 6554
L28347 6572
L28366 6591
" />
<path d="M28722 6554
L28535 6554
L28516 6741
L28535 6722
L28572 6704
L28666 6704
L28703 6722
L28722 6741
L28741 6779
L28741 6872
L28722 6910
L28703 6929
L28666 6947
L28572 6947
L28535 6929
L28516 6910
" />
<path d="M29097 6554
L28910 6554
L28891 6741
L28910 6722
L28947 6704
L29041 6704
L29078 6722
L29097 6741
L29116 6779
L29116 6872
L29097 6910
L29078 6929
L29041 6947
L28947 6947
L28910 6929
L28891 6910
" />
<path d="M29303 6947
L29378 6947
L29416 6929
L29435 6910
L29472 6854
L29491 6779
L29491 6629
L29472 6591
L29453 6572
L29416 6554
L29341 6554
L29303 6572
L29285 6591
L29266 6629
L29266 6722
L29285 6760
L29303 6779
L29341 6797
L29416 6797
L29453 6779
L29472 6760
L29491 6722
" />
<path d="M27629 741
L27685 760
L27704 779
L27722 816
L27722 872
L27704 910
L27685 929
L27647 947
L27497 947
L27497 554
L27629 554
L27666 572
L27685 591
L27704 629
L27704 666
L27685 704
L27666 722
L27629 741
L27497 741
" />
<path d="M28116 910
L28097 929
L28041 947
L28004 947
L27947 929
L27910 891
L27891 854
L27872 779
L27872 722
L27891 647
L27910 610
L27947 572
L28004 554
L28041 554
L28097 572
L28116 591
" />
<path d="M28472 554
L28285 554
L28266 741
L28285 722
L28322 704
L28416 704
L28453 722
L28472 741
L28491 779
L28491 872
L28472 910
L28453 929
L28416 947
L28322 947
L28285 929
L28266 910
" />
<path d="M28847 554
L28660 554
L28641 741
L28660 722
L28697 704
L28791 704
L28828 722
L28847 741
L28866 779
L28866 872
L28847 910
L28828 929
L28791 947
L28697 947
L28660 929
L28641 910
" />
<path d="M29053 947
L29128 947
L29166 929
L29185 910
L29222 854
L29241 779
L29241 629
L29222 591
L29203 572
L29166 554
L29091 554
L29053 572
L29035 591
L29016 629
L29016 722
L29035 760
L29053 779
L29091 797
L29166 797
L29203 779
L29222 760
L29241 722
" />
<path d="M7016 4197
L6791 4197
" />
<path d="M6904 4197
L6904 3804
L6866 3860
L6829 3897
L6791 3916
" />
<path d="M7260 3804
L7297 3804
L7335 3822
L7354 3841
L7372 3879
L7391 3954
L7391 4047
L7372 4122
L7354 4160
L7335 4179
L7297 4197
L7260 4197
L7222 4179
L7204 4160
L7185 4122
L7166 4047
L7166 3954
L7185 3879
L7204 3841
L7222 3822
L7260 3804
" />
<path d="M7635 3804
L7672 3804
L7710 3822
L7729 3841
L7747 3879
L7766 3954
L7766 4047
L7747 4122
L7729 4160
L7710 4179
L7672 4197
L7635 4197
L7597 4179
L7579 4160
L7560 4122
L7541 4047
L7541 3954
L7560 3879
L7579 3841
L7597 3822
L7635 3804
" />
<path d="M7935 3935
L7935 4197
" />
<path d="M7935 3972
L7954 3954
L7991 3935
L8047 3935
L8085 3954
L8104 3991
L8104 4197
" />
<path d="M8422 3991
L8291 3991
" />
<path d="M8291 4197
L8291 3804
L8479 3804
" />
<path d="M21150 6197
L20925 6197
" />
<path d="M21038 6197
L21038 5804
L21000 5860
L20963 5897
L20925 5916
" />
<path d="M21507 5804
L21319 5804
L21300 5991
L21319 5972
L21357 5954
L21450 5954
L21488 5972
L21507 5991
L21525 6029
L21525 6122
L21507 6160
L21488 6179
L21450 6197
L21357 6197
L21319 6179
L21300 6160
" />
<path d="M21769 5804
L21807 5804
L21844 5822
L21863 5841
L21882 5879
L21900 5954
L21900 6047
L21882 6122
L21863 6160
L21844 6179
L21807 6197
L21769 6197
L21732 6179
L21713 6160
L21694 6122
L21675 6047
L21675 5954
L21694 5879
L21713 5841
L21732 5822
L21769 5804
" />
<path d="M22069 6197
L22069 5804
" />
<path d="M22294 6197
L22125 5972
" />
<path d="M22294 5804
L22069 6029
" />
<path d="M21150 1697
L20925 1697
" />
<path d="M21038 1697
L21038 1304
L21000 1360
L20963 1397
L20925 1416
" />
<path d="M21507 1304
L21319 1304
L21300 1491
L21319 1472
L21357 1454
L21450 1454
L21488 1472
L21507 1491
L21525 1529
L21525 1622
L21507 1660
L21488 1679
L21450 1697
L21357 1697
L21319 1679
L21300 1660
" />
<path d="M21769 1304
L21807 1304
L21844 1322
L21863 1341
L21882 1379
L21900 1454
L21900 1547
L21882 1622
L21863 1660
L21844 1679
L21807 1697
L21769 1697
L21732 1679
L21713 1660
L21694 1622
L21675 1547
L21675 1454
L21694 1379
L21713 1341
L21732 1322
L21769 1304
" />
<path d="M22069 1697
L22069 1304
" />
<path d="M22294 1697
L22125 1472
" />
<path d="M22294 1304
L22069 1529
" />
<path d="M16225 5804
L16038 5804
L16019 5991
L16038 5972
L16075 5954
L16169 5954
L16207 5972
L16225 5991
L16244 6029
L16244 6122
L16225 6160
L16207 6179
L16169 6197
L16075 6197
L16038 6179
L16019 6160
" />
<path d="M16413 6160
L16432 6179
L16413 6197
L16394 6179
L16413 6160
L16413 6197
" />
<path d="M16807 6197
L16582 6197
" />
<path d="M16694 6197
L16694 5804
L16657 5860
L16619 5897
L16582 5916
" />
<path d="M16975 6197
L16975 5804
" />
<path d="M17200 6197
L17032 5972
" />
<path d="M17200 5804
L16975 6029
" />
<path d="M9366 5947
L9141 5947
" />
<path d="M9254 5947
L9254 5554
L9216 5610
L9179 5647
L9141 5666
" />
<path d="M9610 5554
L9647 5554
L9685 5572
L9703 5591
L9722 5629
L9741 5704
L9741 5797
L9722 5872
L9703 5910
L9685 5929
L9647 5947
L9610 5947
L9572 5929
L9553 5910
L9535 5872
L9516 5797
L9516 5704
L9535 5629
L9553 5591
L9572 5572
L9610 5554
" />
<path d="M9853 5554
L9985 5947
L10116 5554
" />
<path d="M10500 4197
L10275 4197
" />
<path d="M10388 4197
L10388 3804
L10350 3860
L10313 3897
L10275 3916
" />
<path d="M10744 3804
L10782 3804
L10819 3822
L10838 3841
L10857 3879
L10875 3954
L10875 4047
L10857 4122
L10838 4160
L10819 4179
L10782 4197
L10744 4197
L10707 4179
L10688 4160
L10669 4122
L10650 4047
L10650 3954
L10669 3879
L10688 3841
L10707 3822
L10744 3804
" />
<path d="M11119 3804
L11157 3804
L11194 3822
L11213 3841
L11232 3879
L11250 3954
L11250 4047
L11232 4122
L11213 4160
L11194 4179
L11157 4197
L11119 4197
L11082 4179
L11063 4160
L11044 4122
L11025 4047
L11025 3954
L11044 3879
L11063 3841
L11082 3822
L11119 3804
" />
<path d="M11419 3935
L11419 4197
" />
<path d="M11419 3972
L11438 3954
L11475 3935
L11532 3935
L11569 3954
L11588 3991
L11588 4197
" />
<path d="M11907 3991
L11775 3991
" />
<path d="M11775 4197
L11775 3804
L11963 3804
" />
<path d="M10332 4591
L10350 4572
L10388 4554
L10482 4554
L10519 4572
L10538 4591
L10557 4629
L10557 4666
L10538 4722
L10313 4947
L10557 4947
" />
<path d="M10725 4910
L10744 4929
L10725 4947
L10707 4929
L10725 4910
L10725 4947
" />
<path d="M10894 4591
L10913 4572
L10950 4554
L11044 4554
L11082 4572
L11100 4591
L11119 4629
L11119 4666
L11100 4722
L10875 4947
L11119 4947
" />
<path d="M11494 4947
L11269 4947
" />
<path d="M11382 4947
L11382 4554
L11344 4610
L11307 4647
L11269 4666
" />
<path d="M11663 4947
L11663 4554
" />
<path d="M11888 4947
L11719 4722
" />
<path d="M11888 4554
L11663 4779
" />
<path d="M5525 4069
L5788 4069
" />
<path d="M5375 4163
L5657 4257
L5657 4013
" />
<path d="M5394 3900
L5394 3638
L5788 3807
" />
<path d="M5394 3413
L5394 3375
L5413 3338
L5432 3319
L5469 3300
L5544 3282
L5638 3282
L5713 3300
L5750 3319
L5769 3338
L5788 3375
L5788 3413
L5769 3450
L5750 3469
L5713 3488
L5638 3507
L5544 3507
L5469 3488
L5432 3469
L5413 3450
L5394 3413
" />
<path d="M8332 1591
L8350 1572
L8388 1554
L8482 1554
L8519 1572
L8538 1591
L8557 1629
L8557 1666
L8538 1722
L8313 1947
L8557 1947
" />
<path d="M8725 1910
L8744 1929
L8725 1947
L8707 1929
L8725 1910
L8725 1947
" />
<path d="M8894 1591
L8913 1572
L8950 1554
L9044 1554
L9082 1572
L9100 1591
L9119 1629
L9119 1666
L9100 1722
L8875 1947
L9119 1947
" />
<path d="M9494 1947
L9269 1947
" />
<path d="M9382 1947
L9382 1554
L9344 1610
L9307 1647
L9269 1666
" />
<path d="M9663 1947
L9663 1554
" />
<path d="M9888 1947
L9719 1722
" />
<path d="M9888 1554
L9663 1779
" />
<path d="M30735 2054
L30660 2054
L30622 2072
L30604 2091
L30566 2147
L30547 2222
L30547 2372
L30566 2410
L30585 2429
L30622 2447
L30697 2447
L30735 2429
L30754 2410
L30772 2372
L30772 2279
L30754 2241
L30735 2222
L30697 2204
L30622 2204
L30585 2222
L30566 2241
L30547 2279
" />
<path d="M30941 2410
L30960 2429
L30941 2447
L30922 2429
L30941 2410
L30941 2447
" />
<path d="M31110 2091
L31128 2072
L31166 2054
L31260 2054
L31297 2072
L31316 2091
L31335 2129
L31335 2166
L31316 2222
L31091 2447
L31335 2447
" />
<path d="M31447 2054
L31578 2447
L31710 2054
" />
<path d="M30735 1054
L30660 1054
L30622 1072
L30604 1091
L30566 1147
L30547 1222
L30547 1372
L30566 1410
L30585 1429
L30622 1447
L30697 1447
L30735 1429
L30754 1410
L30772 1372
L30772 1279
L30754 1241
L30735 1222
L30697 1204
L30622 1204
L30585 1222
L30566 1241
L30547 1279
" />
<path d="M30941 1410
L30960 1429
L30941 1447
L30922 1429
L30941 1410
L30941 1447
" />
<path d="M31110 1091
L31128 1072
L31166 1054
L31260 1054
L31297 1072
L31316 1091
L31335 1129
L31335 1166
L31316 1222
L31091 1447
L31335 1447
" />
<path d="M31447 1054
L31578 1447
L31710 1054
" />
<path d="M32276 6660
L32257 6679
L32201 6697
L32163 6697
L32107 6679
L32069 6641
L32051 6604
L32032 6529
L32032 6472
L32051 6397
L32069 6360
L32107 6322
L32163 6304
L32201 6304
L32257 6322
L32276 6341
" />
<path d="M32519 6304
L32594 6304
L32632 6322
L32669 6360
L32688 6435
L32688 6566
L32669 6641
L32632 6679
L32594 6697
L32519 6697
L32482 6679
L32444 6641
L32426 6566
L32426 6435
L32444 6360
L32482 6322
L32519 6304
" />
<path d="M32857 6697
L32857 6304
L33082 6697
L33082 6304
" />
<path d="M33269 6697
L33269 6304
L33494 6697
L33494 6304
" />
<path d="M33588 6735
L33888 6735
" />
<path d="M34057 6304
L34094 6304
L34132 6322
L34150 6341
L34169 6379
L34188 6454
L34188 6547
L34169 6622
L34150 6660
L34132 6679
L34094 6697
L34057 6697
L34019 6679
L34000 6660
L33982 6622
L33963 6547
L33963 6454
L33982 6379
L34000 6341
L34019 6322
L34057 6304
" />
<path d="M34563 6697
L34338 6697
" />
<path d="M34450 6697
L34450 6304
L34413 6360
L34375 6397
L34338 6416
" />
<path d="M34694 6304
L34956 6697
" />
<path d="M34956 6304
L34694 6697
" />
<path d="M35181 6304
L35219 6304
L35256 6322
L35275 6341
L35294 6379
L35313 6454
L35313 6547
L35294 6622
L35275 6660
L35256 6679
L35219 6697
L35181 6697
L35144 6679
L35125 6660
L35106 6622
L35088 6547
L35088 6454
L35106 6379
L35125 6341
L35144 6322
L35181 6304
" />
<path d="M35444 6304
L35688 6304
L35556 6454
L35613 6454
L35650 6472
L35669 6491
L35688 6529
L35688 6622
L35669 6660
L35650 6679
L35613 6697
L35500 6697
L35463 6679
L35444 6660
" />
<path d="M1526 6160
L1507 6179
L1451 6197
L1413 6197
L1357 6179
L1319 6141
L1301 6104
L1282 6029
L1282 5972
L1301 5897
L1319 5860
L1357 5822
L1413 5804
L1451 5804
L1507 5822
L1526 5841
" />
<path d="M1769 5804
L1844 5804
L1882 5822
L1919 5860
L1938 5935
L1938 6066
L1919 6141
L1882 6179
L1844 6197
L1769 6197
L1732 6179
L1694 6141
L1676 6066
L1676 5935
L1694 5860
L1732 5822
L1769 5804
" />
<path d="M2107 6197
L2107 5804
L2332 6197
L2332 5804
" />
<path d="M2519 6197
L2519 5804
L2744 6197
L2744 5804
" />
<path d="M2838 6235
L3138 6235
" />
<path d="M3307 5804
L3344 5804
L3382 5822
L3400 5841
L3419 5879
L3438 5954
L3438 6047
L3419 6122
L3400 6160
L3382 6179
L3344 6197
L3307 6197
L3269 6179
L3250 6160
L3232 6122
L3213 6047
L3213 5954
L3232 5879
L3250 5841
L3269 5822
L3307 5804
" />
<path d="M3813 6197
L3588 6197
" />
<path d="M3700 6197
L3700 5804
L3663 5860
L3625 5897
L3588 5916
" />
<path d="M3944 5804
L4206 6197
" />
<path d="M4206 5804
L3944 6197
" />
<path d="M4431 5804
L4469 5804
L4506 5822
L4525 5841
L4544 5879
L4563 5954
L4563 6047
L4544 6122
L4525 6160
L4506 6179
L4469 6197
L4431 6197
L4394 6179
L4375 6160
L4356 6122
L4338 6047
L4338 5954
L4356 5879
L4375 5841
L4394 5822
L4431 5804
" />
<path d="M4694 5804
L4938 5804
L4806 5954
L4863 5954
L4900 5972
L4919 5991
L4938 6029
L4938 6122
L4919 6160
L4900 6179
L4863 6197
L4750 6197
L4713 6179
L4694 6160
" />
<path d="M23525 4229
L23788 4229
" />
<path d="M23375 4322
L23657 4416
L23657 4172
" />
<path d="M23394 4060
L23394 3797
L23788 3966
" />
<path d="M23525 3479
L23788 3479
" />
<path d="M23525 3647
L23732 3647
L23769 3629
L23788 3591
L23788 3535
L23769 3497
L23750 3479
" />
<path d="M23582 3160
L23582 3291
" />
<path d="M23788 3291
L23394 3291
L23394 3104
" />
<path d="M16525 3979
L16788 3979
" />
<path d="M16375 4072
L16657 4166
L16657 3922
" />
<path d="M16394 3810
L16394 3547
L16788 3716
" />
<path d="M16525 3229
L16788 3229
" />
<path d="M16525 3397
L16732 3397
L16769 3379
L16788 3341
L16788 3285
L16769 3247
L16750 3229
" />
<path d="M16582 2910
L16582 3041
" />
<path d="M16788 3041
L16394 3041
L16394 2854
" />
</g>
<g style="fill:#000000; fill-opacity:0.0; 
stroke:#000000; stroke-width:39.3701; stroke-opacity:1; 
stroke-linecap:round; stroke-linejoin:round;">
<path d="M2610 7519
L2610 19
" />
<path d="M33860 7519
L2610 7519
" />
<path d="M33860 19
L33860 7519
" />
<path d="M2610 19
L33860 19
" />
</g> 
</svg>
